<svg id="Layer_1" data-name="Layer 1" xmlns="http://www.w3.org/2000/svg" viewBox="0 0 180 180"><defs><style>.cls-1{fill:#fff;}</style></defs><title>icons</title><path class="cls-1" d="M137.46,59.9l.09-.09L114,36.36,107.35,43l13.32,13.32a15.75,15.75,0,0,0,5.62,30.48,15.59,15.59,0,0,0,6.31-1.33V131A6.31,6.31,0,1,1,120,131v-28.4A12.62,12.62,0,0,0,107.35,90H101V45.83A12.62,12.62,0,0,0,88.42,33.2H50.56A12.62,12.62,0,0,0,37.94,45.83v101H101V99.47h9.47V131a15.78,15.78,0,1,0,31.55,0v-60A15.84,15.84,0,0,0,137.46,59.9Zm-49,17.48H50.56V45.83H88.42Zm37.86,0a6.31,6.31,0,1,1,6.31-6.31A6.33,6.33,0,0,1,126.29,77.38Z"/></svg>