<svg id="Layer_1" data-name="Layer 1" xmlns="http://www.w3.org/2000/svg" viewBox="0 0 180 180"><defs><style>.cls-1{fill:red;}</style></defs><title>icons</title><path class="cls-1" d="M60.9,53.29H36.64v82.46H143.36V53.29H65.75m50.93.2a2.43,2.43,0,0,0,4.85,0m-80,67.71h97v9.7h-97Zm0-4.85V58.14h97v58.21Z"/><path class="cls-1" d="M68.37,58.28H49.67v-14h18.7Zm-14.69-4H64.36v-6H53.67Z"/><path class="cls-1" d="M127.8,58.28H109.1v-14h18.7Zm-14.69-4H123.8v-6H113.11Z"/><path class="cls-1" d="M86.93,99a2.55,2.55,0,0,1,.74-1.88,3.09,3.09,0,0,1,4,0A2.56,2.56,0,0,1,92.43,99a2.51,2.51,0,0,1-.72,1.83,3.18,3.18,0,0,1-4.06,0A2.51,2.51,0,0,1,86.93,99Zm4.76-6.24H87.53l-.46-20.48h5.1Z"/></svg>