<svg id="Layer_1" data-name="Layer 1" xmlns="http://www.w3.org/2000/svg" viewBox="0 0 213 435"><defs><style>.cls-1{fill:#fff;}.cls-2{fill:#4d4d4d;}.cls-3{fill:none;stroke:#000;stroke-miterlimit:10;}</style></defs><title>car</title><path class="cls-1" d="M152.87,79.33l-5.93-1.94,7.91-16.17L168,69.77l6.11,13.08s-11.52,74.08-17.75,98S106.5,322.06,106.5,322.06L80,307.52l56.6-154.23,22.33-50.37,7.78-19.14Z"/><path class="cls-2" d="M59,333.45,42.45,388.7s19.32.88,39.41-19.61a89.4,89.4,0,0,0,22.61-41.44l-2.05-1.2,1.18.64,3.93-7.19-15.1-7.08-9.95-8.45,35.41-100.65L159,99.34l-3.63-3.57-43.25,102.1L76.26,309.48l-1,.85.58.38-.07.22-.22-.13Z"/><path class="cls-2" d="M101.25,96.21c.34,0,5.67-5.57,13-8.79,9.44-4.17,21.34-6.27,21.34-6.27l11.4-3.77,6,2.89,0-.95,6.64-1.88,6.9,3.25-2.06,11.43-1.21,6.2-9.8-4.69,0-.48-4.83,2.5-5.56,11.19-7.68,4.7-38.37.78-1.58-3.55Z"/><path class="cls-3" d="M168,69.77l6.11,13.08-3.68,22.65-7.29-7.17s3.76-10.85,3.6-14.55-2.11-5.23-2.11-5.23L168,69.77"/><path class="cls-3" d="M164.62,78.55c-5.84-2.19-11.75.77-11.75.77-1.7-1.38-5.93-1.94-5.93-1.94l7.91-16.17,13.5,9"/><path class="cls-3" d="M152.87,79.33c1.92,5.34,2.1,2.62.37,10.86-1.43,6.77,9.89,8.14,9.89,8.14"/><path class="cls-3" d="M146.94,77.38a40.9,40.9,0,0,0-11.4,3.77s-38,3-40.32,28.42c0,0-.3,3.77,6.11,3.68,0,0,23.37-.95,27.56-1,0,0,13.16-.34,16.8-10.06,0,0,2.43-8,7.63-8.51"/><path class="cls-3" d="M170.42,105.5s-4.29,42-16.32,83S99.91,343.42,91.89,355.94s-22.3,25.47-34.82,30.76-20.91,1-20.91,1"/><path class="cls-3" d="M77.53,303.27a9.06,9.06,0,0,1,5,1c1.65,1.09,7.17,6.57,12.06,8.89,5.17,2.45,12.67,6.34,12.67,6.34"/><path class="cls-3" d="M160.41,97.68S107.77,225.19,82.48,304.3"/><path class="cls-3" d="M79,313.39l-8.57,22.85-4.86-1.82-6.5,11.43,2.86,2.73-11.83,29-3.92-2.86s-4,11.69-3.72,14"/><path class="cls-3" d="M156,96s-35.55,79.29-45.39,108.88S75.87,309.17,75.87,309.17c1.41,5.11,27.88,18.08,27.88,18.08"/><path class="cls-3" d="M46.18,374.71s9-32.22,12.42-40.54A39.42,39.42,0,0,1,71.72,318l4.15-8.84"/><path class="cls-3" d="M36.16,387.73S58,320.51,78.51,255.53s56.74-144,56.74-144"/></svg>