<svg id="Layer_1" data-name="Layer 1" xmlns="http://www.w3.org/2000/svg" viewBox="0 0 800 1100"><defs><style>.cls-1{fill:#8fe2ff;opacity:0.48;}.cls-2{fill:#fff;}.cls-3{fill:#770c0c;}.cls-4{fill:none;stroke:#000;stroke-miterlimit:10;}</style></defs><title>car</title><rect class="cls-1" x="204" y="282" width="390" height="448"/><path class="cls-2" d="M185.88,544.31c-1,29.55-.8,39,.94,71.54,3.63,68,6.74,138.52,6.74,138.52l2.59,92.35s3.11,25.42,13,33.2,25.94,6.74,25.94,6.74,57.07-3.63,114.66,5.71c0,0,25.94,2.59,42.54,3.11h15.47c16.6-.52,42.54-3.11,42.54-3.11,57.59-9.34,114.66-5.71,114.66-5.71s16.08,1,25.94-6.74,13-33.2,13-33.2l2.59-92.35s3.11-70.56,6.74-138.52,1.41-64.21,1.41-64.21c2.16,1.43-1.63-6.74-1.63-6.74,3.89,1.56-1.56-69.07-1.56-69.07-1.56-10.39-2.89-77.68-1.85-77.88,0,0,.4,57.87.46,57.63l.87,9.35L611,440.1c-.69-3.73-.68-3.73-.69-3.73l-.52-7.27,1-10.39c-4.93-5.19.75,6.48.75,6.48l-1.73-17.9-.74-11.06.4,1.73,1.3-35.28L608,281.48s-.25-36.82-16.86-53.7c-15.82-16.08-57.07-15.3-57.07-15.3l-54.81-.77c-20.67-4.79-45.17-7.79-74.11-7.79H394.85c-28.95,0-53.44,3-74.11,7.79l-54.81.77s-41.24-.78-57.07,15.3c-16.61,16.88-16.86,53.7-16.86,53.7l-2.85,81.19,1.3,35.28.4-1.73-.74,11.06-1.41,18.17s3.89,14.54-1,19.73l.39-8.06.59,24.57M539.84,494c-5,3-12.36,2.86-12.36,2.86l-55-6.2s-20.8-2.28-64.94-2.8-118.92,5.71-118.92,5.71-26,6.75-31.68,0S244.8,457.3,244.8,457.3L232.57,382s-2.71-17.57.64-28.62c2-6.63,7.15-10.71,11.83-13.44,9.06-5.28,26.75-13,44.23-17.69a376,376,0,0,1,47.95-9.31L404.45,309l59.2,4.4s67,6.75,94,29.08c7.77,6.43,8.83,30.64,8.83,30.64L548.82,478S544.81,491,539.84,494Z"/><path class="cls-3" d="M520.25,819.42,466,817.72s-43.16,5.34-62.89,7-73.79-6.58-73.79-6.58l-50.57,1.3L266,659.66l-2.15-162.19S361,488.64,401,489s134.15,8.48,134.15,8.48L532.06,654Z"/><path class="cls-4" d="M219.76,368s6.69-41.3,117.71-54.7c24.34-2.94,42.6-3,58.07-3.2a474.87,474.87,0,0,1,56.17,2.06c122,11,126.88,56.54,126.88,56.54a22.37,22.37,0,0,1,7.44,6.4s-3.2-83.69-6.66-101.87"/><circle class="cls-4" cx="344.56" cy="305.33" r="2.39"/><circle class="cls-4" cx="454.82" cy="305.33" r="2.39"/><path class="cls-4" d="M535.14,497.47s0,97.63-2.42,153.71c-2.69,62.26-12.46,168.25-12.46,168.25"/><path class="cls-4" d="M568.55,259.11s5.19,36.87,10,109.57"/><path class="cls-4" d="M478.36,211.68l55.3.78s41.28-.78,57.12,15.32c16.62,16.9,16.88,53.75,16.88,53.75"/><path class="cls-4" d="M575,249.85s13.76,19.73,10.65,31.94"/><path class="cls-4" d="M575,249.85c9.35,6.49,26.36,18.65,32.72,31.68l2.86,81.27-1.3,35.31"/><path class="cls-4" d="M605.07,343.41l2.08,28,2.42,36-15.23,3.12s2.08-8,1.73-14.54a177.45,177.45,0,0,0-2.42-17.66l-4.5,6.23s-.35-7.27-4.85-12.12"/><path class="cls-4" d="M594.34,410.57,584,421c1.38-6.23,5.19-36.35,5.19-36.35"/><line class="cls-4" x1="583.95" y1="420.96" x2="579.45" y2="443.46"/><path class="cls-4" d="M553.83,221.2s20.25,3.94,18.69,9c-1.38,4.5-21.46-2.77-21.46-2.77s-18.69-4.85-18-8.31S553.83,221.2,553.83,221.2Z"/><path class="cls-4" d="M567.34,225.36s1.38,5.54-1.73,5.89"/><path class="cls-4" d="M579.45,443.46s-10.73,40.85-13.85,83.43S562,691,565.09,705.53s11.94,31.68,21.81,41,19.21,8.31,19.21,8.31"/><path class="cls-4" d="M529.6,819.08s11.08-91.74,11.77-130.51S547.26,551.82,549,530c1.59-20,29.6-161.33,29.6-161.33"/><path class="cls-4" d="M527.17,841.66s0-2,.29-7.83a28.79,28.79,0,0,1,2.49-10.25"/><path class="cls-4" d="M594.43,834.12a46.41,46.41,0,0,0,2.32-5.8s1.5-4.5-.29-5.8c-3.19-2.32-8.7,3.48-8.7,3.48l-28.12,25.22"/><path class="cls-4" d="M566.31,855.87l14.79-13s11.21-10.63,13.34-8.7c3.19,2.9-1.74,14.21-10.44,23.77-8.55,9.4-36.53,20-36.53,20-2,.62-13.92,2.9-12.18-.58.93-1.87,7-5.22,11-7.54S566.31,855.87,566.31,855.87Z"/><path class="cls-4" d="M540.5,868.33s-14.79,6.09-12.47,13l12.47-2,7-1.45"/><path class="cls-4" d="M479.91,882.83c1,.26,50.72,1.18,57.12-3.48"/><path class="cls-4" d="M263.82,497.47s0,97.63,2.42,153.71c2.69,62.26,12.46,168.25,12.46,168.25"/><path class="cls-4" d="M238.72,344.1c-7.1,5-7.62,30.29-5.71,41.2,1,5.72,9.87,61.45,16.1,89.84s22.11,22.16,22.11,22.16S321.81,489,398,489h3c76.16,0,126.75,8.31,126.75,8.31s15.88,6.23,22.11-22.16S565,391,566,385.3c1.9-10.91,1.39-36.2-5.71-41.2"/><path class="cls-4" d="M284.25,223.11s-27.48,2-57.9,24.67c-20.25,15.06-20.77,44.66-20.77,44.66a112.43,112.43,0,0,1,10.13-13.07s14.66-33.29,67.11-55.65c26.52-11.31,62.7-19.82,111.53-19.82h10.29c48.83,0,85,8.51,111.53,19.82,52.45,22.36,67.11,55.65,67.11,55.65a112.43,112.43,0,0,1,10.13,13.07s-.52-29.6-20.77-44.66c-30.42-22.62-57.9-24.67-57.9-24.67"/><path class="cls-4" d="M230.41,259.11s-5.19,36.87-10,109.57"/><path class="cls-4" d="M320.6,211.68l-55.3.78s-41.28-.78-57.12,15.32c-16.62,16.9-16.88,53.75-16.88,53.75"/><path class="cls-4" d="M224,249.85s-13.76,19.73-10.65,31.94"/><path class="cls-4" d="M224,249.85c-9.35,6.49-26.36,18.65-32.72,31.68l-2.86,81.27,1.3,35.31"/><path class="cls-4" d="M193.89,343.41l-2.08,28-2.42,36,15.23,3.12s-2.08-8-1.73-14.54a177.45,177.45,0,0,1,2.42-17.66l4.5,6.23s.35-7.27,4.85-12.12l6.74-8.31"/><path class="cls-4" d="M204.62,410.57,215,421c-1.38-6.23-5.19-36.35-5.19-36.35"/><line class="cls-4" x1="215.01" y1="420.96" x2="219.51" y2="443.46"/><path class="cls-4" d="M245.13,221.2s-20.25,3.94-18.69,9c1.38,4.5,21.46-2.77,21.46-2.77s18.69-4.85,18-8.31S245.13,221.2,245.13,221.2Z"/><path class="cls-4" d="M231.63,225.36s-1.38,5.54,1.73,5.89"/><path class="cls-4" d="M609.57,407.45l4.32,144.18c.27,21.26.08,43.79-1,64.57-3.64,68-6.75,138.65-6.75,138.65l-2.6,92.43s-3.12,25.45-13,33.23-26,6.75-26,6.75S507.44,883.64,449.8,893c0,0-26,2.6-42.58,3.12H391.74c-16.62-.52-42.58-3.12-42.58-3.12-57.64-9.35-114.76-5.71-114.76-5.71s-16.1,1-26-6.75-13-33.23-13-33.23l-2.6-92.43s-3.12-70.62-6.75-138.65c-1.24-23.19-1.33-48.54-.92-71.9l4.2-136.86"/><path class="cls-4" d="M219.51,443.46s10.73,40.85,13.85,83.43,3.64,164.1.52,178.64-11.94,31.68-21.81,41-19.21,8.31-19.21,8.31"/><path class="cls-4" d="M269.36,819.08s-11.08-91.74-11.77-130.51S251.7,551.82,250,530c-1.59-20-29.6-161.33-29.6-161.33"/><path class="cls-4" d="M269.36,819.08s54.09-1.64,69.67-.87c8.69.43,27.15,4.17,41,5.71a116.56,116.56,0,0,0,15.84.78h7.17a116.56,116.56,0,0,0,15.84-.78c13.87-1.54,32.34-5.28,41-5.71,15.58-.78,69.67.87,69.67.87"/><path class="cls-4" d="M268.32,819s51.24,3.12,66.82,3.89c8.69.43,29.49,3.91,43.36,5.45a116.56,116.56,0,0,0,15.84.78h10.29a116.56,116.56,0,0,0,15.84-.78c13.87-1.54,34.67-5,43.36-5.45,15.58-.78,66.82-3.89,66.82-3.89"/><path class="cls-4" d="M391.54,889.79s-65.23-3.48-117.71-15.08c-19.43-5.22-32.18-20.58-32.18-20.58-9.86-11.6-6.76-23-.29-36.24,7.25-14.79,17.4-2,17.4-2A29,29,0,0,0,269,823.58s38.77,12.81,62.62,14.49S395,840.2,395,840.2h8.91s39.54-.45,63.39-2.13,62.62-14.49,62.62-14.49a29,29,0,0,0,10.27-7.72s10.15-12.76,17.4,2c6.47,13.2,9.57,24.64-.29,36.24,0,0-12.76,15.37-32.18,20.58-52.48,11.6-117.71,15.08-117.71,15.08Z"/><path class="cls-4" d="M271.8,841.66s0-2-.29-7.83A28.79,28.79,0,0,0,269,823.58"/><path class="cls-4" d="M204.53,834.12a46.41,46.41,0,0,1-2.32-5.8s-1.5-4.5.29-5.8c3.19-2.32,8.7,3.48,8.7,3.48l28.12,25.22"/><path class="cls-4" d="M232.66,855.87l-14.79-13s-11.21-10.63-13.34-8.7c-3.19,2.9,1.74,14.21,10.44,23.77,8.55,9.4,36.53,20,36.53,20,2,.62,13.92,2.9,12.18-.58-.93-1.87-7-5.22-11-7.54S232.66,855.87,232.66,855.87Z"/><path class="cls-4" d="M258.46,868.33s14.79,6.09,12.47,13l-12.47-2-7-1.45"/><path class="cls-4" d="M319.05,882.83c-1,.26-50.72,1.18-57.12-3.48"/><path class="cls-4" d="M390.67,869.78c-13.63,0-99.16-1.45-99.16-1.45-20.58.29-24.8-15.57-23.77-22,2-12.76,26.09-2.32,26.09-2.32,25.22,5.22,99.74,2,99.74,2H405.4s74.51,3.19,99.74-2c0,0,24.06-10.44,26.09,2.32,1,6.46-3.19,22.32-23.77,22,0,0-85.53,1.45-99.16,1.45Z"/></svg>