<svg id="Layer_1" data-name="Layer 1" xmlns="http://www.w3.org/2000/svg" viewBox="0 0 279 420"><defs><style>.cls-1{fill:#fff;}.cls-2{fill:#4d4d4d;}.cls-3{fill:none;stroke:#000;stroke-miterlimit:10;}</style></defs><title>car</title><path class="cls-1" d="M116.11,52.33,122,50.38l-7.91-16.17L101,42.77,94.88,55.85s11.52,74.08,17.75,98,49.85,141.25,49.85,141.25L189,280.52l-56.6-154.23L110,75.92l-7.78-19.14Z"/><path class="cls-2" d="M193.41,283.8l-.22.13-.07-.22.58-.38-1-.85-35.85-111.6L113.62,68.78,110,72.34l41.07,104.4,35.41,100.65-9.95,8.45-15.1,7.08,3.93,7.19,1.18-.64-2.05,1.2a89.4,89.4,0,0,0,22.61,41.44c20.09,20.49,39.41,19.61,39.41,19.61L210,306.45Z"/><path class="cls-2" d="M167.73,69.21c-.34,0-5.67-5.57-13-8.79-9.44-4.17-21.34-6.27-21.34-6.27L122,50.38l-6,2.89,0-.95-6.64-1.88-6.9,3.25,2.06,11.43,1.21,6.2,9.8-4.69,0-.48,4.83,2.5,5.56,11.19,7.68,4.7,38.37.78,1.58-3.55Z"/><path class="cls-3" d="M101,42.77,94.88,55.85,98.56,78.5l7.29-7.17s-3.76-10.85-3.6-14.55,2.11-5.23,2.11-5.23L101,42.77"/><path class="cls-3" d="M104.36,51.55c5.84-2.19,11.75.77,11.75.77,1.7-1.38,5.93-1.94,5.93-1.94l-7.91-16.17-13.5,9"/><path class="cls-3" d="M116.11,52.33c-1.92,5.34-2.1,2.62-.37,10.86,1.43,6.77-9.89,8.14-9.89,8.14"/><path class="cls-3" d="M122,50.38a40.9,40.9,0,0,1,11.4,3.77s38,3,40.32,28.42c0,0,.3,3.77-6.11,3.68,0,0-23.37-.95-27.56-1,0,0-13.16-.34-16.8-10.06,0,0-2.43-8-7.63-8.51"/><path class="cls-3" d="M98.56,78.5s4.29,42,16.32,83,54.19,154.93,62.21,167.45,22.3,25.47,34.82,30.76,20.91,1,20.91,1"/><path class="cls-3" d="M191.46,276.27a9.06,9.06,0,0,0-5,1c-1.65,1.09-7.17,6.57-12.06,8.89-5.17,2.45-12.67,6.34-12.67,6.34"/><path class="cls-3" d="M108.57,70.68S161.22,198.19,186.5,277.3"/><path class="cls-3" d="M190,286.39l8.57,22.85,4.86-1.82,6.5,11.43-2.86,2.73,11.83,29,3.92-2.86s4,11.69,3.72,14"/><path class="cls-3" d="M112.95,69s35.55,79.29,45.39,108.88,34.77,104.26,34.77,104.26c-1.41,5.11-27.88,18.08-27.88,18.08"/><path class="cls-3" d="M222.81,347.71s-9-32.22-12.42-40.54A39.42,39.42,0,0,0,197.26,291l-4.15-8.84"/><path class="cls-3" d="M232.82,360.73s-21.87-67.22-42.34-132.2-56.74-144-56.74-144"/></svg>