<svg id="Layer_1" data-name="Layer 1" xmlns="http://www.w3.org/2000/svg" viewBox="0 0 483 207"><defs><style>.cls-1{fill:#fff;}.cls-1,.cls-2{stroke:#000;stroke-miterlimit:10;}.cls-2{fill:none;}</style></defs><title>car</title><path class="cls-1" d="M369.66,100.36c3.25.07,18.59-3.2,19.82-3.58,0,0,28-10.6,36.53-20,6.39-7,10.74-15,11.34-19.87l.21-.95c2.3,8.3,3.54,33-48.57,60.41h0c-17.48,8.31-20.55,19.81-20.56,18.74-7.83,22.11-42.06,21.81-42.06,21.81s-16.12,0-40,.52c-24.93.52-44,0-44,0h-1.76s-19.08.56-44,0c-23.87-.5-40-.52-40-.52s-34.24.3-42.06-21.81c0,1.07-3.08-10.43-20.56-18.74h0C41.06,88.51,43.19,63.46,45.55,55.57l.14,1.59c.72,4.9,5,12.71,11.31,19.61,8.55,9.4,36.53,20,36.53,20l7,1.45,12.47,2h0c16.47,1.9,48.13,1.41,48.13,1.45v0c34.66,4.43,72.48,7,72.48,7s3.26.12,7.93.09,8-.2,8-.2,37.7-2.72,72.43-7.23h0c1,.26,51.82,1.42,58.22-3.24"/><line class="cls-2" x1="405.24" y1="49.34" x2="368.43" y2="135.11"/><line class="cls-2" x1="78.09" y1="49.34" x2="114.9" y2="135.11"/></svg>