<?xml version="1.0" encoding="UTF-8" standalone="no"?>
<svg
   xmlns:dc="http://purl.org/dc/elements/1.1/"
   xmlns:cc="http://creativecommons.org/ns#"
   xmlns:rdf="http://www.w3.org/1999/02/22-rdf-syntax-ns#"
   xmlns:svg="http://www.w3.org/2000/svg"
   xmlns="http://www.w3.org/2000/svg"
   xmlns:sodipodi="http://sodipodi.sourceforge.net/DTD/sodipodi-0.dtd"
   xmlns:inkscape="http://www.inkscape.org/namespaces/inkscape"
   id="Layer_1"
   data-name="Layer 1"
   viewBox="0 0 128 32"
   version="1.1"
   sodipodi:docname="logo.svg"
   width="128"
   height="32"
   inkscape:version="0.92.1 r15371">
  <metadata
     id="metadata25">
    <rdf:RDF>
      <cc:Work
         rdf:about="">
        <dc:format>image/svg+xml</dc:format>
        <dc:type
           rdf:resource="http://purl.org/dc/dcmitype/StillImage" />
        <dc:title>logo</dc:title>
      </cc:Work>
    </rdf:RDF>
  </metadata>
  <sodipodi:namedview
     pagecolor="#ffffff"
     bordercolor="#666666"
     borderopacity="1"
     objecttolerance="10"
     gridtolerance="10"
     guidetolerance="10"
     inkscape:pageopacity="0"
     inkscape:pageshadow="2"
     inkscape:window-width="1920"
     inkscape:window-height="1015"
     id="namedview23"
     showgrid="false"
     inkscape:zoom="3.28125"
     inkscape:cx="63.847619"
     inkscape:cy="16"
     inkscape:window-x="0"
     inkscape:window-y="0"
     inkscape:window-maximized="1"
     inkscape:current-layer="Layer_1" />
  <defs
     id="defs4">
    <style
       id="style2">.cls-1{fill:#ecaf29;}</style>
  </defs>
  <title
     id="title6">logo</title>
  <g
     id="g34"
     transform="translate(0.025,-46.010306)">
    <path
       id="path8"
       d="m 102.38,60.32 v 9.51 h 3.26 V 60.5 A 2.35,2.35 0 0 1 108,58.15 h 1.51 V 55 h -1.67 a 5.5,5.5 0 0 0 -5.45,5.28"
       inkscape:connector-curvature="0" />
    <path
       id="path10"
       d="M 114.45,64.36 V 58.13 H 118 V 55 h -3.6 v -2.9 h -3.27 v 12.43 a 5.51,5.51 0 0 0 5.45,5.28 h 1.67 v -3.1 h -1.5 a 2.36,2.36 0 0 1 -2.34,-2.35"
       inkscape:connector-curvature="0" />
    <path
       id="path12"
       d="m 77.67,54.75 a 5.39,5.39 0 0 0 -4.17,2 5.41,5.41 0 0 0 -4.18,-2 A 5.35,5.35 0 0 0 64,59.8 v 10 h 3.28 v -9.59 a 2.31,2.31 0 0 1 2.3,-2.38 c 1.06,0 2.31,0.72 2.31,2.76 v 9.23 h 3.27 v -9.24 c 0,-1.9 1.19,-2.76 2.3,-2.76 a 2.24,2.24 0 0 1 2.31,2.38 v 9.61 H 83 v -10 a 5.36,5.36 0 0 0 -5.34,-5.07"
       inkscape:connector-curvature="0" />
    <path
       id="path14"
       d="m 92.61,54.78 a 7.5,7.5 0 0 0 -7.54,7.63 7.41,7.41 0 0 0 7.6,7.72 5.64,5.64 0 0 0 4.21,-1.7 v 1.39 h 3.26 v -7.34 a 7.36,7.36 0 0 0 -7.53,-7.69 m 0,12.21 A 4.54,4.54 0 1 1 97.03,62.47 4.29,4.29 0 0 1 92.65,67"
       inkscape:connector-curvature="0" />
    <path
       id="path16"
       d="m 56.36,61 c -3.16,-0.37 -3.8,-0.93 -3.8,-1.8 0,-1.36 2.07,-1.54 3,-1.54 a 6.63,6.63 0 0 1 4.21,1.56 l 2.08,-2.08 a 9.8,9.8 0 0 0 -6.78,-2.35 c -3.9,0 -6,2.37 -6,4.6 0,2.64 2.05,4.15 6.28,4.61 1.78,0.19 3.12,0.44 3.12,1.68 0,2.28 -5.72,2.05 -8,-0.49 l -2.27,2.28 a 10.3,10.3 0 0 0 6.87,2.7 c 4.76,0 6.93,-2.34 6.93,-4.52 0,-2.74 -1.78,-4.22 -5.62,-4.66"
       inkscape:connector-curvature="0" />
    <path
       id="path18"
       d="m 15.85,55.1 -0.31,1.68 a 5.44,5.44 0 0 1 4.33,-1.94 4.16,4.16 0 0 1 2.27,0.63 2.94,2.94 0 0 1 1.22,1.63 5.69,5.69 0 0 1 4.59,-2.25 3.72,3.72 0 0 1 3.05,1.38 5.72,5.72 0 0 1 0.87,3.91 v 0.34 L 30.3,69.89 H 26.41 L 28,60.44 A 6.87,6.87 0 0 0 28,59.5 1.46,1.46 0 0 0 26.38,58 3.25,3.25 0 0 0 23.66,59.7 v 0.31 L 21.9,69.89 H 18 l 1.57,-9.41 a 6.86,6.86 0 0 0 0,-0.94 A 1.46,1.46 0 0 0 18,58.05 3.26,3.26 0 0 0 15.36,59.43 L 13.55,69.89 H 9.7 l 2.55,-14.78 z"
       class="cls-1"
       inkscape:connector-curvature="0"
       style="fill:#ecaf29" />
    <path
       id="path20"
       d="m 39.6,64.27 4.22,-9.15 h 4.29 l -8.65,17 A 7.4,7.4 0 0 1 37.29,75 4.76,4.76 0 0 1 34.4,75.92 8.81,8.81 0 0 1 32.54,75.63 l 0.29,-3 h 0.53 a 2.89,2.89 0 0 0 2.76,-1.38 L 37,69.69 34.55,55.11 h 4 z"
       class="cls-1"
       inkscape:connector-curvature="0"
       style="fill:#ecaf29" />
  </g>
</svg>
