<svg id="Layer_1" data-name="Layer 1" xmlns="http://www.w3.org/2000/svg" viewBox="0 0 180 180"><defs><style>.cls-1{opacity:0.77;}.cls-2{fill:#b3b3b3;}</style></defs><title>icons</title><g class="cls-1"><path class="cls-2" d="M36.95,76.74v82H143.05v-82H65.88V49.25c0-12.77,11.36-23.15,25.32-23.15s25.32,10.39,25.32,23.15V76.93a2.41,2.41,0,0,0,4.82,0V49.25c0-15.43-13.52-28-30.14-28s-30.14,12.55-30.14,28V76.74Zm4.82,67.52h96.46v9.65H41.77Zm0-4.82V81.56h96.46v57.88Z"/><path class="cls-2" d="M80.35,105.68v14.47a9.65,9.65,0,1,0,19.29,0V105.68a9.65,9.65,0,1,0-19.29,0Zm4.82,0a4.82,4.82,0,1,1,9.65,0v14.47a4.82,4.82,0,1,1-9.65,0Z"/></g></svg>