<svg id="Layer_1" data-name="Layer 1" xmlns="http://www.w3.org/2000/svg" viewBox="0 0 180 180"><defs><style>.cls-1{opacity:0.77;}.cls-2{fill:#b3b3b3;}</style></defs><title>icons</title><g class="cls-1"><path class="cls-2" d="M86.22,134.43c-34.54-.1-62.63-20-62.63-44.4,0-9.39,4-18.35,11.61-25.92C46.84,52.5,65.82,45.57,86,45.57h.25A4,4,0,0,1,90,48.38a141.44,141.44,0,0,1,.06,83.07A4.18,4.18,0,0,1,86.22,134.43ZM86,49.49c-19.13,0-37.07,6.51-48,17.4C31.13,73.72,27.51,81.72,27.51,90c0,22.21,26.31,40.35,58.65,40.47a.44.44,0,0,0,.16-.2,137.53,137.53,0,0,0-.05-80.78.06.06,0,0,0-.05,0Z"/><path class="cls-2" d="M155.16,106.24,110.67,88a2,2,0,0,0-1.53,3.75L153.62,110a2,2,0,0,0,1.53-3.75Z"/><path class="cls-2" d="M109.14,71.56l44.49,18.2A2,2,0,1,0,155.16,86l-44.49-18.2a2,2,0,0,0-1.53,3.75Z"/><path class="cls-2" d="M155.16,126.46l-44.49-18.2a2,2,0,1,0-1.53,3.75l44.49,18.2a2,2,0,0,0,1.53-3.75Z"/></g></svg>