<svg id="Layer_1" data-name="Layer 1" xmlns="http://www.w3.org/2000/svg" viewBox="0 0 180 180"><defs><style>.cls-1{opacity:0.77;}.cls-2{fill:#b3b3b3;}</style></defs><title>icons</title><g class="cls-1"><path class="cls-2" d="M36.41,76.6v82.82H143.59V76.6H65.64V48.84c0-12.89,11.47-23.39,25.58-23.39s25.58,10.49,25.58,23.39v7.84a2.44,2.44,0,1,0,4.87,0V48.84c0-15.58-13.66-28.26-30.45-28.26S60.77,33.26,60.77,48.84V76.6Zm4.87,68.2h97.43v9.74H41.28Zm0-4.87V81.47h97.43v58.46Z"/><path class="cls-2" d="M80.26,105.83v14.61a9.74,9.74,0,1,0,19.49,0V105.83a9.74,9.74,0,0,0-19.49,0Zm4.87,0a4.87,4.87,0,0,1,9.74,0v14.61a4.87,4.87,0,0,1-9.74,0Z"/></g></svg>